<?xml version="1.0" encoding="utf-8"?>
<!-- Generator: Adobe Illustrator 16.0.0, SVG Export Plug-In . SVG Version: 6.00 Build 0)  -->
<!DOCTYPE svg PUBLIC "-//W3C//DTD SVG 1.1//EN" "http://www.w3.org/Graphics/SVG/1.1/DTD/svg11.dtd">
<svg version="1.1" id="Layer_1" xmlns="http://www.w3.org/2000/svg" xmlns:xlink="http://www.w3.org/1999/xlink" x="0px" y="0px"
	 width="113.448px" height="166.493px" viewBox="0 0 113.448 166.493" enable-background="new 0 0 113.448 166.493"
	 xml:space="preserve">
<g>
	<g>
		<g>
			<path fill="#9D9D9C" d="M43.617,108.611l40.99-26.932l2.831-74.461l-2.842-1.638L40.79,30.873v1.185v0.936l0.001,73.984
				L43.617,108.611z M81.571,10.83l-0.003,3.28l0.002,17.906l0.002,16.879L81.57,79.931l-37.753,21.797l0.001-69.101L81.571,10.83z"
				/>
			<path fill="#EDEDED" d="M43.617,108.611l43.816-25.298l0.01-59.165l-0.007-0.97v-0.935l-0.001-0.776
				c0.004-0.016,0.003-14.249,0.003-14.249L43.622,32.517L43.617,108.611z M46.649,103.371l0.006-2.36l-0.005-66.74l37.763-21.802
				l0.001,6.753l-0.004,6.561l0.002,55.786L46.649,103.371z"/>
			<polygon fill="#A4D9F5" points="46.653,101.012 46.653,34.269 82.363,13.653 82.366,80.39 			"/>
			<polygon opacity="0.3" fill="#FFFFFF" points="47.554,99.452 47.554,73.452 73.545,19.783 81.463,15.212 81.464,32.016 
				48.525,98.892 			"/>
			<polygon opacity="0.3" fill="#FFFFFF" points="52.16,96.792 81.464,38.438 81.464,48.892 58.934,92.881 			"/>
		</g>
		<g>
			<path fill="#9D9D9C" d="M2.827,132.158l40.99-26.931l2.831-74.461l-2.842-1.639L0.001,54.42L0,55.605v0.935l0.001,73.984
				L2.827,132.158z M40.781,34.378l-0.003,3.28l0.002,17.905l0.002,16.879l-0.002,31.036L3.027,125.275l0.001-69.101L40.781,34.378z
				"/>
			<path fill="#EDEDED" d="M2.827,132.158l43.816-25.297l0.01-59.165l-0.007-0.971v-0.935l-0.001-0.776
				c0.004-0.016,0.003-14.248,0.003-14.248L2.832,56.063L2.827,132.158z M5.859,126.919l0.006-2.361L5.86,57.818l37.763-21.803
				l0.001,6.754l-0.004,6.56l0.002,55.787L5.859,126.919z"/>
			<polygon fill="#A4D9F5" points="5.863,124.559 5.863,57.815 41.573,37.2 41.576,103.938 			"/>
			<polygon opacity="0.3" fill="#FFFFFF" points="6.764,122.999 6.764,97 32.755,43.331 40.673,38.76 40.674,55.563 7.735,122.438 
							"/>
			<polygon opacity="0.3" fill="#FFFFFF" points="11.37,120.34 40.674,61.984 40.674,72.438 18.144,116.428 			"/>
		</g>
	</g>
	<g>
		<path fill="#9D9D9C" d="M61.235,59.519c-0.318,0-0.633-0.147-0.834-0.426c-0.333-0.46-0.23-1.104,0.229-1.437l12.929-9.369
			c0.461-0.334,1.104-0.23,1.437,0.229c0.334,0.461,0.231,1.104-0.229,1.438l-12.929,9.369
			C61.656,59.454,61.444,59.519,61.235,59.519z"/>
		<path fill="#E89B61" d="M77.854,83.642l-2.562-1.285l-2.504-2.157c-0.563-1.337-0.714-3.456-0.603-4.906
			c0.034-0.438,0.36-0.799,0.794-0.87l0.104-0.017l2.705,1.666C77.505,78.415,78.48,81.437,77.854,83.642z"/>
		<path d="M83.238,115.502c-0.464,0-0.886-0.316-0.999-0.789L67.754,54.518c-0.134-0.553,0.207-1.108,0.76-1.24
			c0.551-0.133,1.107,0.206,1.24,0.76l14.486,60.194c0.133,0.553-0.207,1.108-0.76,1.241
			C83.399,115.492,83.318,115.502,83.238,115.502z"/>
		<path fill="#FCAF75" d="M72.789,80.199l1.078-0.238l0.529,0.147l0.15-0.085c0.442-0.252,0.685-0.749,0.61-1.252l-0.311-2.087
			l-0.575-2.009l-1.188-0.27l-0.096,0.016c-0.433,0.07-0.761,0.426-0.792,0.863C72.09,76.752,72.212,78.885,72.789,80.199z"/>
		<path fill="#FCAF75" d="M80.967,85.978c-0.277-1.518,1.096-3.621,2.272-3.875l-3.855-2.47l-2.177-3.18
			c-0.505-0.919-1.97-1.582-3.195-3.02c-0.616-0.554-0.839,0.653-0.346,1.255l2.363,2.781c-0.767,1.908-0.186,4.407,1.825,6.172
			L80.967,85.978z"/>
		<path d="M61.681,60.108c-0.319,0-0.634-0.147-0.834-0.426c-0.334-0.46-0.231-1.104,0.229-1.437l13.491-9.775
			c0.461-0.334,1.104-0.23,1.438,0.229s0.23,1.104-0.229,1.437l-13.491,9.775C62.101,60.044,61.89,60.108,61.681,60.108z"/>
		<path fill="#2F608F" d="M113.422,99.33c-0.998-2.951-2.643-5.182-4.756-6.889c-4.609-2.225-9.282-3.682-14.026-4.246
			l-14.656-8.179c-0.865-0.22-2.591,2.367-1.711,3.938c3.942,4.478,8.107,6.753,13.216,10.499
			C101.923,101.837,110.162,105.172,113.422,99.33z"/>
		<path fill="#1D1D1B" d="M94.313,124.434c-0.285,0-0.515-0.23-0.515-0.515V0.515C93.799,0.23,94.028,0,94.313,0
			c0.284,0,0.515,0.23,0.515,0.515v123.404C94.828,124.203,94.598,124.434,94.313,124.434z"/>
		<path fill="#FCAF75" d="M78.704,104.14l-0.476-1.415l-1.415-1.758l-0.707-3.516l0.75-2.208l0.536-0.621l0.386,1.479
			c0.364,1.394,2.122,1.394,2.229,0.45l-0.364-1.479l1.607,2.079c0.191,1.489,0.611,2.969,0.286,3.938l0.722,2.407L79,104.783
			L78.704,104.14z"/>
		<path fill="#1D1D1B" d="M85.39,140.34l-0.438,2.445l-1.027,1.186c-1.936,0.803-3.977,1.591-3.972,3.521
			c0,2.128,3.902,1.867,7.211,1.063c2.069-0.354,3.057-0.155,4.275-0.591c0.944-0.279,1.701-0.325,2.05-1.063
			c0-1.537-0.318-3.616-1.028-4.385l-0.923-1.468l-0.709-2.955l-5.557,0.296L85.39,140.34z"/>
		<path fill="#265D91" d="M94.315,116.83l-2.603-0.394c-1.353-0.261-6.864-0.637-7.843,0.89c-0.532,0.829-0.79,2.491-0.687,4.111
			c0.448,6.958,1.308,17.598,1.379,20.558c0.532,2.542,6.324,2.601,8.039,0.354C92.019,138.274,93.869,120.438,94.315,116.83z"/>
		<path fill="#1D1D1B" d="M71.204,148.457l-0.439,2.445l-1.026,1.187c-1.937,0.802-3.977,1.59-3.972,3.521
			c0,2.128,3.902,1.868,7.211,1.064c2.068-0.355,3.057-0.156,4.275-0.592c0.944-0.279,1.701-0.325,2.049-1.063
			c0-1.537-0.317-3.616-1.027-4.385l-0.923-1.467l-0.709-2.956l-5.557,0.296L71.204,148.457z"/>
		<path fill="#3F76AB" d="M113.396,99.703c-0.756,5.104-2.484,10.259-6.02,15.522c-0.586,0.88-1.379,4.517-1.019,5.603
			c-2.912,5.063-7.573,3.221-12.97,2.86c-0.675-0.041-1.354-0.098-2.032-0.164c-0.9-0.083-1.807-0.176-2.712-0.268
			c0.052-0.633,0.093-1.256,0.129-1.863c0.252-4.28,0.206-7.948,0.524-11.441c0.104-1.179,0.247-2.331,0.458-3.483
			c0.242-1.322,0.571-2.64,1.019-3.982c2.022-1.883,4.07-3.411,6.23-4.682c3.051-1.806,6.323-3.103,10.038-4.178
			c1.07-0.309,2.182-0.602,3.334-0.885C112.876,94.275,113.674,96.704,113.396,99.703z"/>
		<path fill="#FCAF75" d="M98.43,83.146c-1.091,1.673-1.551,4.183-1.61,7.222c0.313,0.944,0.703,1.687,1.177,2.214
			c0.495,0.551,0.662,1.321,0.487,2.041l-0.315,2.575c0.983,1.727,3.885,2.122,5.699,1.262c1.141-0.542,3.388-1.77,2.936-4.198
			l0.452-5.591L98.43,83.146z"/>
		<g>
			<path fill="#FF8521" d="M104.868,81.448l-3.438-1.696c-2.074,0.209-3.697,1.331-5.09,2.915c0,7.525,5.714,13.654,10.914,12.528
				c3.616-0.782,4.912-3.045,4.182-5.829L104.868,81.448z"/>
			<path fill="#E05A00" d="M102.258,80.578c-3.64,1.333-5.068,3.167-4.568,5.438c1.215,5.093,4.852,8.355,8.44,8.526
				c3.465,0.165,5.667-2.686,5.088-6.743C110.645,83.788,107.913,80.23,102.258,80.578z"/>
			<polygon fill="#FF8521" points="97.593,86.8 98.255,86.19 98.843,87.553 98.218,88.431 			"/>
			<polygon fill="#FF8521" points="101.779,93.107 102.54,92.194 104.172,93.107 103.649,94.261 			"/>
			<path fill="#FF8521" d="M101.54,83.754c3.193,2.057,4.843,4.925,5.209,8.614c0,0,0.291-3.263-1.381-5.636
				C103.606,84.231,101.54,83.754,101.54,83.754z"/>
			<path fill="#FF8521" d="M105.194,81.122c3.193,2.057,4.843,4.924,5.209,8.614c0,0,0.291-3.263-1.381-5.636
				C107.261,81.599,105.194,81.122,105.194,81.122z"/>
			<path fill="#FF8521" d="M101.431,81.666c0,0,2.841,0.407,5.46,3.851c1.937,2.544,2.197,6.329,2.197,6.329s0.521-3.61-1.958-6.743
				C103.843,80.95,101.431,81.666,101.431,81.666z"/>
			<polygon fill="#FF8521" points="98.359,83.023 99.974,82.34 103.193,80.796 102.258,80.578 99.756,81.122 98.359,82.928 			"/>
		</g>
		<path fill="#3F76AB" d="M95.733,136.401c-3.962-0.118-13.577-2.686-16.906-5.675c1.538,5.228-1.477,12.291-0.411,19.741
			c-1.714,2.243-7.507,2.187-8.037-0.354c-0.298-12.297-1.708-25.89,0.942-28.431c1.023-0.875,2.618-1.349,4.676-1.498
			c3.129-0.231,7.316,0.283,12.173,1.261l0.603-0.052l3.545-0.318l13.645-1.225c0.133,0.309,0.257,0.648,0.37,1.019
			C107.947,125.993,107.685,136.319,95.733,136.401z"/>
		<path fill="#1D1D1B" d="M88.896,118.73l-0.281,2.833c4.873,7.389,14.369,6.738,18.222,2.522c0.068-1.282-0.093-2.367-0.481-3.257
			C105.389,123.165,96.819,126.646,88.896,118.73z"/>
		<path fill="#1D1D1B" d="M84.127,120.721c-2.835,1.178-4.45,10.143-0.787,12.585c0.959,0.488,2.082,0.884,3.32,1.212
			c-4.245-4.344-2.807-11.55,0.571-13.24C86.186,120.882,85.15,120.689,84.127,120.721z"/>
		<path fill="#1D1D1B" d="M86.726,129.809c-2.01,0-3.581-0.973-3.664-1.025l0.755-1.2c0.021,0.013,2.12,1.296,4.272,0.596
			c1.533-0.499,2.771-1.889,3.678-4.13l1.314,0.531c-1.073,2.655-2.611,4.321-4.569,4.952
			C87.897,129.73,87.294,129.809,86.726,129.809z"/>
		<path fill="#1D1D1B" d="M99.114,131.74c-0.597,0-1.209-0.18-1.789-0.535c-1.581-0.97-2.508-2.963-2.418-5.203l0.944,0.038
			c-0.09,2.269,0.957,3.739,1.968,4.358c0.763,0.468,1.587,0.52,2.263,0.142c1.116-0.625,1.757-2.346,1.757-4.721h0.945
			c0,3.734-1.403,5.078-2.24,5.546C100.098,131.615,99.611,131.74,99.114,131.74z"/>
		<path fill="#1D1D1B" d="M105.325,129.465c-0.187,0-0.375-0.042-0.56-0.126c-1.022-0.467-1.72-2.124-1.82-4.326l0.945-0.042
			c0.094,2.056,0.723,3.259,1.268,3.508c0.147,0.068,0.266,0.053,0.394-0.049c0.44-0.348,1.01-1.816,0.357-5.119l0.928-0.184
			c0.588,2.976,0.326,5.234-0.698,6.045C105.893,129.366,105.612,129.465,105.325,129.465z"/>
		<g>
			<path fill="#575756" d="M105.671,146.817c-0.392,0-0.709-0.317-0.709-0.71l-0.001-7.619c0-0.025-0.001-0.049-0.003-0.067
				c-0.018,0.008-0.038,0.018-0.061,0.03l-5.169,2.985c-0.34,0.196-0.773,0.079-0.969-0.26c-0.196-0.339-0.08-0.773,0.259-0.969
				l5.17-2.985c0.522-0.302,1.071-0.33,1.507-0.078c0.435,0.251,0.685,0.741,0.685,1.344v7.619
				C106.38,146.5,106.063,146.817,105.671,146.817z"/>
			<g>
				<path fill="#EA4A49" d="M89.063,149.706l19.562-1.164l-1.233,12.751c-0.03,0.289-0.233,0.573-0.615,0.794l-7.014,4.05
					c-0.825,0.476-2.162,0.476-2.987,0l-5.356-3.093c-0.369-0.213-0.571-0.485-0.61-0.764
					C90.808,162.28,89.063,149.706,89.063,149.706z"/>
				<path fill="#CF4140" d="M89.784,150.609l2.23,1.287l4.09,2.359c0.971,0.562,2.55,0.562,3.521,0l6.046-3.489l2.23-1.287
					c0.971-0.562,0.971-1.472,0-2.033l-6.32-3.65c-0.972-0.562-2.55-0.562-3.521,0l-8.276,4.776
					C88.813,149.137,88.813,150.048,89.784,150.609z"/>
				<path opacity="0.5" fill="#2F608F" d="M92.015,151.896l4.09,2.359c0.971,0.562,2.55,0.562,3.521,0l6.046-3.489l-4.09-2.358
					c-0.972-0.562-2.55-0.562-3.521,0L92.015,151.896z"/>
				<path fill="#AB3635" d="M95.912,154.587l-6.318-3.647c-0.594-0.343-0.921-0.822-0.921-1.349s0.327-1.006,0.921-1.349
					l8.273-4.777c0.528-0.305,1.222-0.472,1.953-0.472s1.425,0.167,1.953,0.473l6.317,3.647c0.595,0.343,0.922,0.821,0.922,1.349
					c0,0.526-0.327,1.006-0.922,1.349l-8.273,4.776c-0.527,0.305-1.221,0.473-1.952,0.473
					C97.133,155.06,96.439,154.892,95.912,154.587z M98.251,144.129l-8.274,4.776c-0.342,0.198-0.537,0.447-0.537,0.686
					s0.195,0.488,0.537,0.686l6.318,3.647c0.407,0.235,0.979,0.37,1.57,0.37c0.59,0,1.162-0.135,1.569-0.37l8.273-4.776
					c0.342-0.198,0.538-0.447,0.538-0.686s-0.196-0.488-0.538-0.686l-6.317-3.647c-0.407-0.235-0.979-0.37-1.57-0.37
					S98.658,143.894,98.251,144.129z"/>
			</g>
			<path fill="#575756" d="M92.699,154.306c-0.392,0-0.709-0.317-0.709-0.709v-7.62c0-0.976,0.638-2.079,1.482-2.566l5.546-3.202
				c0.34-0.196,0.773-0.08,0.969,0.26c0.196,0.339,0.08,0.772-0.259,0.969l-5.547,3.202c-0.404,0.233-0.772,0.871-0.772,1.338v7.62
				C93.409,153.988,93.092,154.306,92.699,154.306z"/>
		</g>
		<path fill="#3C3C3B" d="M99.297,142.281c-0.389,0-0.706-0.314-0.709-0.705l-0.076-10.669c-0.002-0.392,0.313-0.711,0.704-0.714
			c0.395,0,0.712,0.314,0.715,0.704l0.076,10.669c0.003,0.392-0.313,0.712-0.704,0.715
			C99.301,142.281,99.299,142.281,99.297,142.281z"/>
		<path opacity="0.5" fill="#3F76AB" d="M94.313,108.526l-1.996,12.549l-0.304,1.894l-0.658,0.556l-0.623,0.524l-14.735-3.864
			c3.129-0.231,7.316,0.283,12.173,1.261l0.603-0.052c0.252-4.28,0.206-7.948,0.524-11.441L94.313,108.526z"/>
		<path fill="#3F76AB" d="M90.772,102.489l-4.697,5.467l-3.945-5.467c-1.374-0.484-2.733,0.241-4.085,1.479
			c0.985,5.722,2.833,11.153,7.172,13.376c5.303-0.113,7.864-4.373,11.603-8.815L90.772,102.489z"/>
	</g>
</g>
</svg>
