<?xml version="1.0" encoding="utf-8"?>
<!-- Generator: Adobe Illustrator 16.0.0, SVG Export Plug-In . SVG Version: 6.00 Build 0)  -->
<!DOCTYPE svg PUBLIC "-//W3C//DTD SVG 1.1//EN" "http://www.w3.org/Graphics/SVG/1.1/DTD/svg11.dtd">
<svg version="1.1" id="Layer_1" xmlns="http://www.w3.org/2000/svg" xmlns:xlink="http://www.w3.org/1999/xlink" x="0px" y="0px"
	 width="119.397px" height="111.352px" viewBox="0 0 119.397 111.352" enable-background="new 0 0 119.397 111.352"
	 xml:space="preserve">
<g>
	<path fill="#1D1D1B" d="M65.938,89.963l-3.854,0.576c-0.796,0.453-0.812,1.013-0.345,1.639c1.431,1.354,3.776,2.573,5.934,2.746
		c0.633,0.678,1.392,1.038,2.271,1.092c1.115-0.213,2.03-0.633,2.674-1.333c0.206-1.995-0.308-3.607-1.257-4.987L65.938,89.963z"/>
	<path fill="#1D1D1B" d="M37.18,91.608l-3.977-0.25c-2.673,0-2.3,2.789,0.834,3.785c3.08,1.335,6.045,2.502,8.452,2.856
		c1.072,0.069,1.805-0.31,2.204-1.131c0.516-1.403,0.148-2.655-0.422-3.872L37.18,91.608z"/>
	<path fill="#FCAF75" d="M53.405,54.247c-0.35,0.17-0.713,0.34-1.086,0.506c-1.122,4.434-2.483,9.83-4.715,14.614l-0.114,0.685
		l-0.346,2.093c0.23,1.063,0.207,2.327,0.023,3.753c-0.562,4.494-2.636,10.593-2.897,17.097c0.345,2.3-0.396,2.144-1.32,2.3
		c-4.002-0.433-8.97-2.3-6.04-3.68l3.45-0.115c-0.249-6.403-0.479-12.788-0.295-17.783c0.037-1.081,0.097-2.097,0.18-3.031v-3.767
		c-0.855-8.638,1.03-18.05,4.903-26.187l15.336-5.58c1.531,2.581,2.654,5.138,2.746,7.645
		C63.382,46.782,60.936,50.636,53.405,54.247z"/>
	<path fill="#FCAF75" d="M71.584,90.696c-0.599,0.699-1.85,1.072-3.795,1.095c-1.159-0.092-2.13-0.386-2.788-1.007l1.808-1.583
		c-0.487-4.337-2.575-9.471-4.554-15.414c-0.391-1.155-0.772-2.341-1.136-3.561l-1.297-2.452c0-0.004-0.833-1.573-0.833-1.573
		c-2.263-3.22-4.062-7.318-5.584-11.955c-0.17-0.529-0.345-1.067-0.511-1.615l4.085-12.074l6.251,2.24
		c0.014,0.004,1.568,19.784,1.568,19.784l1.063,2.576l0.027,0.069c1.739,2.052,2.636,4.236,3.253,6.463
		c0.009,0.032,0.018,0.06,0.027,0.092C70.604,80.001,70.144,84.601,71.584,90.696z"/>
	<path opacity="0.3" fill="#3F76AB" d="M47.145,72.145c0.23,1.063,0.207,2.327,0.023,3.753c-2.687,0.234-5.565-1.237-7.103-2.181
		c0.037-1.081,0.097-2.097,0.18-3.031V68.35l7.245,1.702L47.145,72.145z"/>
	<path opacity="0.3" fill="#3F76AB" d="M69.142,71.689c-2.447,1.32-5.134,1.872-6.887,2.098c-0.391-1.155-0.772-2.341-1.136-3.561
		l-1.297-2.452c0-0.004,6.039-2.617,6.039-2.617l0.027,0.069C67.628,67.278,68.524,69.463,69.142,71.689z"/>
	<path fill="#EDEDED" d="M56.689,17.32c0.041,0.428,0.124,0.851,0.253,1.256c-1.716-0.253-3.491-0.64-5.313-1.132l-0.947-1.477
		l-3-4.678c2.42-1.146,4.89-1.021,7.396,0.253c1.132,0.294,2.231,0.607,3.299,0.938C57.066,13.631,56.501,15.526,56.689,17.32z"/>
	<path fill="#FCAF75" d="M71.142,30.171h-2.76c-0.11-0.198-0.221-0.4-0.331-0.602c-2.387-4.365-4.972-9.094-5.842-10.686
		c-1.674,0.083-3.436-0.037-5.267-0.308c-0.129-0.405-0.212-0.828-0.253-1.256c-0.188-1.794,0.377-3.689,1.688-4.839
		c2.736,0.851,5.253,1.831,7.438,3.008C68.442,18.539,69.872,24.183,71.142,30.171z"/>
	<path opacity="0.5" fill="#3F76AB" d="M68.046,29.56c-2.382-4.356-4.967-9.085-5.837-10.676c-1.674,0.083-3.436-0.037-5.267-0.308
		c-1.716-0.253-3.491-0.64-5.313-1.132l-0.947-1.477l-0.079-0.358c1.928,0.855,3.961,1.403,6.086,1.711
		c2.106,0.308,4.301,0.377,6.555,0.281C62.996,19.836,66.469,24.652,68.046,29.56z"/>
	<path fill="#DADADA" d="M95.817,90.681c-1.382,0-3.139-1.042-5.643-3.31c-0.472-0.426-0.508-1.153-0.081-1.624
		c0.425-0.471,1.152-0.508,1.624-0.081c3.281,2.97,4.139,2.717,4.172,2.705c0.059-0.021,0.358-0.212,0.639-1.969l0.681-14.307
		c0.03-0.634,0.567-1.125,1.204-1.094c0.634,0.03,1.123,0.569,1.094,1.203l-0.696,14.492c-0.179,1.139-0.509,3.261-2.153,3.843
		C96.392,90.632,96.113,90.681,95.817,90.681z"/>
	<g>
		<g enable-background="new    ">
			<g>
				<polygon fill="#DADADA" points="0,67.772 0.011,69.605 5.215,72.678 4.283,68.345 				"/>
			</g>
			<g>
				<polygon fill="#878787" points="4.283,68.345 5.215,72.678 19.247,64.577 18.315,60.244 				"/>
			</g>
			<g>
				<polygon fill="#9D9D9C" points="0,67.772 4.283,68.345 18.315,60.244 14.032,59.67 				"/>
			</g>
		</g>
	</g>
	<path fill="#3C3C3B" d="M11.021,66.5c-0.664,0-1.307-0.362-1.634-0.992c-0.469-0.902-0.117-2.013,0.785-2.481l1.705-0.886
		c0.9-0.469,2.013-0.117,2.48,0.785c0.469,0.902,0.117,2.013-0.785,2.481l-1.705,0.886C11.598,66.433,11.308,66.5,11.021,66.5z"/>
	<path fill="#E89B61" d="M71.143,30.171c0.708,1.369,0.813,2.928,0.608,4.584l-3.058,2.3l-1.367-2.818l1.01-4.096L71.143,30.171z"/>
	<path fill="#575756" d="M13.23,64.892c-0.499,0-0.98-0.271-1.226-0.744c-0.352-0.676-0.088-1.509,0.588-1.86l58.99-30.628
		c0.678-0.352,1.51-0.087,1.86,0.588c0.352,0.676,0.089,1.509-0.588,1.861l-58.99,30.627C13.662,64.842,13.444,64.892,13.23,64.892z
		"/>
	<path fill="#EDEDED" d="M37.311,35.466c-0.258,0.17-0.529,0.332-0.814,0.474c-1.426,0.727-3.137,1.048-4.6,0.437l-0.736-2.719
		c-2.23-3.45-2.778-6.789-1.255-9.618c2.769,0.382,5.018,2.645,5.924,5.704c0.221,0.74,0.363,1.527,0.414,2.346
		c0.005,0.051,0.005,0.106,0.01,0.156C37.085,33.309,36.837,33.759,37.311,35.466z"/>
	<path fill="#FCAF75" d="M38.943,48.304l-2.134,0.644l-3.538-7.47l-1.375-5.101c1.463,0.611,3.174,0.29,4.6-0.437
		c0.285-0.143,0.557-0.304,0.814-0.474c0.234,0.842,0.446,1.729,0.64,2.641l0.947,9.738l0.009,0.078L38.943,48.304z"/>
	<path fill="#FCAF75" d="M29.207,1.173c-2.481,0.786-3.338,2.714-2.702,5.692c0.574,1.927,1.552,3.665,2.875,5.232
		c0.743,0.88,1.774,1.675,3.106,2.303c0.392,0.185,0.845,0.199,1.242,0.025l0.302-0.132c0,0,0.797,1.275,1.042,2.173
		s0.729,2.415,0.729,2.415l7.608-3.967l-4.37-3.393c0.113-3.227,0.238-5.822-1.695-8.423C35.534,0.535,32.458,0.144,29.207,1.173z"
		/>
	<path fill="#3F76AB" d="M68.764,68.925c-10.041,2.981-19.471,6.9-29.052,0.92c-0.088-4.057-0.056-8.192,0.285-12.198
		c0.542-6.366,1.867-12.396,4.733-17.259l3.123-1.118l12.631-4.536c2.466,3.243,3.827,7.286,3.68,12.42
		C64.983,55.089,66.377,62.48,68.764,68.925z"/>
	<path fill="#3F76AB" d="M56.666,41.478l-9.153-0.837l-2.782-0.253c-2.65-4.655-4.986-4.402-8.487-8.298
		c-0.051-0.051-0.097-0.106-0.143-0.156c-0.193-0.801-0.533-1.596-0.966-2.364c-1.353-2.406-3.62-4.503-5.229-5.529
		c0,0,5.501-7.263,8.729-9.241c3.234-1.978,9.048-3.51,9.048-3.51c1.904,1.256,3.377,3.018,4.37,5.35c0,0,2.53,7.359,3.602,12.189
		c0.69,3.109,3.316,3.813,4.83,5.906C64.67,40.503,56.666,41.478,56.666,41.478z"/>
	<path fill="#1D1D1B" d="M31.354,11.542l-1.688-0.594c-1.384-0.915-2.464-1.967-3.104-3.22c-1.207-3.076,0.165-6.31,3.526-7.302
		c3.836-1.133,5.586,0.107,7.484,2.386c1.725,2.07,2.329,5.834,1.294,8.479l-2.3,1.35C34.856,13.536,33.036,12.858,31.354,11.542z"
		/>
	<path fill="#FCAF75" d="M29.84,11.121c-0.083-0.284-0.287-0.563-0.168-0.882c0.123-0.326,0.61-0.362,0.878-0.216
		c0.636,0.346,0.923,1.116,1.077,1.77c0.044,0.188,0.161,0.574,0.038,0.75c-0.166,0.238-0.565-0.02-0.752-0.133
		c-0.276-0.168-0.597-0.404-0.752-0.695C30.069,11.544,29.875,11.24,29.84,11.121z"/>
	<path fill="#1D1D1B" d="M37.085,9.941c1.563-1.244,13.947,4.756,0.228,18.453C37.896,20.344,33.692,12.641,37.085,9.941z"/>
	<path fill="#FCAF75" d="M35.69,50.305l0.545-0.252c-0.043,1.26,0.233,1.666,0.993,2.538l0.565,0.311l2.073-0.677
		c0.268-0.087,0.479-0.291,0.577-0.554l0.339-0.916l-0.471,0.193c-0.634-0.538-1.12-1.626-1.015-2.516l-0.398-0.589l-2.338,0.577
		C36.129,48.956,35.831,49.58,35.69,50.305z"/>
	<path fill="#FCAF75" d="M70.895,29.02l0.198,2.374c-0.488,1.115-1.341,1.483-2.49,2.243l-0.232,1.249l0.297,1.493
		c0.041,0.7-0.663,0.831-0.825,0.153l-0.664-1.7l0.087-1.407c-0.033-0.912,0.178-1.832,0.689-2.764l0.907-2.024L70.895,29.02z"/>
	<path fill="#FCAF75" d="M72.331,34.445l-0.226-0.616c-0.156-0.424-0.665-0.594-1.044-0.348l-2.809,1.404l0.204,1.485l-0.8,0.48
		l0.927,0.266c0.359,0,0.708-0.123,0.989-0.346l2.271-1.481L72.331,34.445z"/>
	<g>
		<circle cx="96.27" cy="106.655" r="2.116"/>
		<circle cx="112.469" cy="109.236" r="2.116"/>
		<g>
			<g enable-background="new    ">
				<g>
					<path fill="#575756" d="M119.397,99.555l-0.009,3.125c-0.005,1.933-1.275,3.864-3.813,5.338
						c-5.111,2.971-13.422,2.968-18.563,0c-2.589-1.495-3.883-3.456-3.877-5.414l0.009-3.125c-0.005,1.958,1.288,3.918,3.877,5.413
						c5.141,2.968,13.451,2.971,18.563,0C118.122,103.419,119.393,101.488,119.397,99.555z"/>
				</g>
				<g>
					<path fill="#B2B2B2" d="M115.524,94.141c5.141,2.968,5.168,7.784,0.061,10.752c-5.111,2.971-13.422,2.968-18.563,0
						c-5.146-2.97-5.172-7.781-0.061-10.752C102.069,91.173,110.38,91.17,115.524,94.141z"/>
				</g>
			</g>
		</g>
		<g>
			<circle fill="#EA4A49" cx="106.271" cy="83.242" r="11.092"/>
			<g enable-background="new    ">
				<g>
					<path fill="#EA4A49" d="M117.363,83.274l-0.007,14.872c-0.005,1.634-1.078,3.266-3.222,4.511
						c-4.32,2.511-11.344,2.508-15.688,0c-2.188-1.263-3.281-2.92-3.276-4.575l0.008-14.872c-0.005,1.654,1.088,3.311,3.275,4.575
						c4.345,2.508,11.367,2.51,15.688,0C116.286,86.54,117.359,84.908,117.363,83.274z"/>
				</g>
			</g>
			<g>
				<path fill="#FFFFFF" d="M117.356,85.214c0.009,1.645-1.064,3.289-3.222,4.543c-4.32,2.51-11.344,2.508-15.688,0
					c-2.174-1.255-3.267-2.899-3.276-4.543v3.378c0.01,1.644,1.103,3.288,3.276,4.543c4.344,2.508,11.367,2.511,15.688,0
					c2.157-1.254,3.23-2.898,3.222-4.543V85.214z"/>
			</g>
			<g>
				<path fill="#FFFFFF" d="M117.356,89.667c0.009,1.645-1.064,3.289-3.222,4.543c-4.32,2.511-11.344,2.508-15.688,0
					c-2.174-1.256-3.267-2.899-3.276-4.543v1.199c0.01,1.644,1.103,3.288,3.276,4.543c4.344,2.508,11.367,2.511,15.688,0
					c2.157-1.254,3.23-2.898,3.222-4.543V89.667z"/>
			</g>
		</g>
		<g>
			<g>
				<g enable-background="new    ">
					<g>
						<path fill="#B2B2B2" d="M96.888,96.568l0.607-0.349c0.376-0.216,0.894-0.186,1.465,0.142c1.15,0.66,2.081,2.274,2.081,3.605
							c0,0.67-0.235,1.141-0.616,1.36l-0.608,0.349c0.381-0.218,0.616-0.689,0.616-1.36c0-1.332-0.931-2.946-2.081-3.605
							C97.781,96.383,97.264,96.353,96.888,96.568z"/>
					</g>
					<g>
						<path fill="#575756" d="M96.271,97.928c0-1.332,0.933-1.876,2.081-1.218c1.15,0.66,2.081,2.274,2.081,3.605
							c0,1.332-0.931,1.877-2.081,1.217C97.203,100.874,96.271,99.26,96.271,97.928z"/>
					</g>
				</g>
			</g>
			<path d="M96.999,98.241c-0.051-0.898,0.517-1.231,1.267-0.742c0.751,0.489,1.399,1.614,1.45,2.512
				c0.051,0.899-0.516,1.231-1.266,0.742C97.7,100.264,97.051,99.14,96.999,98.241z"/>
		</g>
		<path opacity="0.3" fill="#FFFFFF" d="M104.832,72.71c-5.17,0.704-9.179,5.144-9.193,10.502c-0.004,1.295,0.228,2.553,0.667,3.73
			c0.602,0.588,1.23,1.142,1.914,1.578C98.004,81.037,100.169,75.728,104.832,72.71z"/>
		<g>
			<g enable-background="new    ">
				<g>
					<path d="M110.354,73.21l-0.003,0.973c-0.002,0.602-0.396,1.203-1.187,1.661c-1.591,0.924-4.177,0.924-5.776,0
						c-0.806-0.465-1.208-1.076-1.206-1.685l0.003-0.972c-0.002,0.609,0.4,1.219,1.206,1.685c1.6,0.923,4.186,0.924,5.776,0
						C109.956,74.413,110.352,73.813,110.354,73.21z"/>
				</g>
				<g>
					<path fill="#B2B2B2" d="M109.148,71.526c1.6,0.924,1.607,2.422,0.019,3.346c-1.591,0.924-4.177,0.923-5.776,0
						c-1.602-0.925-1.609-2.422-0.019-3.346C104.961,70.603,107.547,70.602,109.148,71.526z"/>
				</g>
			</g>
		</g>
	</g>
	<path fill="#DADADA" d="M98.359,73.299c-0.034,0-0.068-0.001-0.103-0.004c-0.633-0.056-1.1-0.614-1.045-1.247
		c0.658-7.459,4.129-7.897,5.188-7.856c2.858,0.119,5.03,3.521,5.052,7.913c0.003,0.634-0.507,1.169-1.14,1.175
		c-0.64,0-1.152-0.487-1.159-1.117c-0.019-3.641-1.666-5.624-2.849-5.672c-1.152-0.055-2.444,1.715-2.802,5.76
		C99.45,72.849,98.948,73.299,98.359,73.299z"/>
	<path fill="#DADADA" d="M90.945,87.668c-0.274,0-0.55-0.098-0.77-0.296c-6.492-5.857-8.461-17.425-8.601-23.337
		c-0.206-8.684-1.434-22.882-1.918-26.807c-0.176-1.423-0.983-2.658-2.217-3.39c-1.232-0.731-2.704-0.849-4.036-0.321l-0.068,0.027
		c-0.592,0.234-1.26-0.055-1.493-0.645c-0.234-0.59,0.055-1.258,0.645-1.493l0.07-0.028c2.001-0.791,4.208-0.616,6.057,0.482
		c1.85,1.098,3.062,2.951,3.325,5.085c0.489,3.96,1.728,18.28,1.935,27.035c0.122,5.163,1.918,16.34,7.843,21.685
		c0.472,0.425,0.509,1.152,0.083,1.624C91.572,87.541,91.26,87.668,90.945,87.668z"/>
	<path opacity="0.5" fill="#3F76AB" d="M48.226,39.532c-0.243,0.363-0.479,0.731-0.713,1.108
		c-3.104,5.005-5.511,11.274-7.337,18.593l-0.179-1.587c0.542-6.366,1.867-12.396,4.733-17.259c-2.65-4.655-4.986-4.402-8.487-8.298
		c0.005,0.051,0.005,0.106,0.01,0.156c0.832,1.063,0.584,1.513,1.058,3.22c0.234,0.842,0.446,1.729,0.64,2.641l0.947,9.738
		l-1.633-8.312l-0.769-3.592l-1.366-6.371c0.239,0.046,0.47,0.101,0.699,0.175c4.08,1.237,7.42,6.242,12.024,9.526
		C47.978,39.357,48.102,39.445,48.226,39.532z"/>
</g>
</svg>
