<?xml version="1.0" encoding="utf-8"?>
<!-- Generator: Adobe Illustrator 17.1.0, SVG Export Plug-In . SVG Version: 6.00 Build 0)  -->
<!DOCTYPE svg PUBLIC "-//W3C//DTD SVG 1.1//EN" "http://www.w3.org/Graphics/SVG/1.1/DTD/svg11.dtd">
<svg version="1.1" id="Layer_1" xmlns="http://www.w3.org/2000/svg" xmlns:xlink="http://www.w3.org/1999/xlink" x="0px" y="0px"
	 viewBox="0 0 1180 1180" enable-background="new 0 0 1180 1180" xml:space="preserve">
<g>
	<path fill="#5D5E5E" d="M952.9,652.6c-1.2-22.5-11.5-40.7-25.7-56.7c-13-14.7-28.4-26.4-43.1-35c4.3,3.4,10.7,8.1,16.7,13.2
		c17.8,15,33,32.2,40,55.3c7.3,24.2,3.1,47.2-10.7,69.1c-16.7,26.3-41,43.6-67.5,58c-38.8,21-80.3,33.9-122.8,42.7
		c-99.7,20.7-198.7,20.8-297,2.2c-41.7-7.9-82.1-19.6-120-38.2c-26-12.8-50.3-28.1-68.8-50.9c-16.3-20.1-25.5-42.9-21.1-70.3
		c2.3-14.5,8.7-27.3,17.1-39.4c-26,30-32.2,67.7-7.2,104.3c13.1,19.3,30.6,34,50,46.3c59.3,37.6,126.1,54.6,195.5,64
		c44.5,6.1,89.4,7.3,134.6,5.4c0,0,49.5-5.2,83.5-7c1.2-0.7,2.6-1.1,4.2-1.4c48.3-7.6,95.7-19.3,140.8-40.6
		c25-11.8,48.6-26.1,68.4-46.1C940.4,706.6,954.5,682.8,952.9,652.6z"/>
	<g>
		<path fill="#15A6DB" d="M657.9,552.7L657.9,552.7C657.8,552.7,657.8,552.7,657.9,552.7L657.9,552.7z"/>
		<path fill="#15A6DB" d="M657.9,552.7L657.9,552.7C658.6,552.7,658.6,552.7,657.9,552.7z"/>
		<g>
			<g>
				<path fill="#5D5E5E" d="M456,528.6L456,528.6v10h-10l0,0C445.9,533.1,450.4,528.6,456,528.6z"/>
				<path fill="#5D5E5E" d="M457.5,528.6L457.5,528.6c5.5,0,10,4.5,10,10l0,0h-10V528.6z"/>
				<rect x="445.9" y="540.2" fill="#5D5E5E" width="10" height="10"/>
				<rect x="457.5" y="540.2" fill="#5D5E5E" width="10" height="10"/>
			</g>
		</g>
		<g>
			<g>
				<path fill="#5D5E5E" d="M622.3,528.6L622.3,528.6v10h-10l0,0C612.3,533.1,616.7,528.6,622.3,528.6z"/>
				<path fill="#5D5E5E" d="M623.8,528.6L623.8,528.6c5.5,0,10,4.5,10,10l0,0h-10V528.6z"/>
				<rect x="612.3" y="540.2" fill="#5D5E5E" width="10" height="10"/>
				<rect x="623.8" y="540.2" fill="#5D5E5E" width="10" height="10"/>
			</g>
		</g>
		<polygon fill="#A6CE39" points="623.5,479.1 623.5,491.8 622.8,491.2 614.1,498.5 613.1,499.3 603.2,507.5 599.1,510.9 
			588.4,519.9 584.2,523.3 579.4,527.3 539.5,560.6 497.7,525.9 474.9,507 463.1,497.1 457.1,492.1 456,491.2 379.8,557 
			251.3,555.1 369.5,553.8 398.7,528.1 398.7,500.4 417,500.4 417,513.3 457,479.1 460.4,480.9 466.1,483.9 475.7,489 497.7,500.5 
			502.8,503.2 516.5,510.4 519.7,512.1 541.1,523.3 545.8,520.8 550.4,518.3 555.9,515.4 562.7,511.7 567.3,509.2 570,507.7 
			584.2,500.1 588.4,497.9 608.7,487 614.1,484.1 623.5,479 		"/>
		<polygon fill="#A6CE39" points="828.6,556 699.8,557 623.5,491.8 623.5,479.1 662.8,512.6 662.8,500.6 681.3,500.6 681.3,529.1 
			711,554.2 		"/>
		<polygon fill="#15A6DB" points="537.6,564.4 514.9,564.4 463.1,517.3 457,511.7 456.8,511.5 393.1,564.9 251.3,561.1 381.5,559.3 
			456.7,496.8 457.1,497.1 463.1,502.2 474.9,512 493.2,527.3 		"/>
		<polygon fill="#15A6DB" points="828.6,560.9 685,564.2 623.5,511.6 623.2,511.3 605.1,527.3 563.4,564.2 541.5,564.2 588.4,524.8 
			608.7,507.8 611.3,505.6 622.9,495.9 623.5,496.4 698,559.6 		"/>
		<polygon fill="#15A6DB" points="485.9,460.5 485.9,474.7 481.3,477 481.3,470.6 466.1,480.2 460.4,477.2 		"/>
		<polygon fill="#15A6DB" points="497.7,469.6 497.7,496.8 475.7,485.3 		"/>
		<path fill="#15A6DB" d="M488.2,393.7v75.9l14.6-9.1v39l13.7,7.2v-66.3l9.2-7.3v-63.5L488.2,393.7z M504.2,429.4h-5.4V424h5.4
			V429.4z M504.2,418.7h-5.4v-5.4h5.4V418.7z M504.2,408h-5.4v-5.4h5.4V408z M515.1,429.4h-5.4V424h5.4V429.4z M515.1,418.7h-5.4
			v-5.4h5.4V418.7z M515.1,408h-5.4v-5.4h5.4V408z"/>
		<polygon fill="#15A6DB" points="555.9,427.7 555.9,511.7 550.4,514.6 550.4,422.2 		"/>
		<g>
			<polygon fill="#5D5E5E" points="545.8,461.1 545.8,517.1 541.1,519.6 519.7,508.4 519.7,484.3 			"/>
			<polygon fill="#5D5E5E" points="544.4,440.9 519.7,463.5 519.7,477.8 544.4,455.9 			"/>
			<polygon fill="#5D5E5E" points="545.3,422.2 519.7,443.6 519.7,456.9 545.3,435.3 			"/>
			<polygon fill="#5D5E5E" points="530.7,428.1 530.7,370.5 555.8,398.4 555.8,418 550.5,412.5 			"/>
			<polygon fill="#5D5E5E" points="567.3,440.5 567.3,505.5 562.7,507.9 562.7,436.3 			"/>
		</g>
		<polygon fill="#15A6DB" points="596.6,380.6 596.6,429 584.2,420.4 584.2,496.4 570,504 570,433.2 560.4,423.9 560.4,356.6 		"/>
		<path fill="#15A6DB" d="M588.4,429.9v64.3l20.3-10.9v-4.8h5.4v1.9l9.4-5.1l0,0V454L588.4,429.9z M603.2,483.9h-5.4v-5.4h5.4V483.9
			z M603.2,472.2h-5.4v-5.4h5.4V472.2z M614.1,472.2h-5.4v-5.4h5.4V472.2z"/>
	</g>
	<g>
		<path fill="#15A6DB" d="M731.2,684.9c0-1.2-0.4-1.8-1.8-1.8c-8.3,0.1-16.7,0-25,0c-1,0-1.6,0.2-1.7,1.3c0,0.3-0.5,0.6-0.8,0.8
			c-0.3-0.3-0.5-0.6-0.8-0.8c-0.4-0.4-0.7-1.2-1.1-1.2c-1.4-0.1-2.9-0.1-4.4,0c-0.4,0-1.1,0.9-1,1c0.7,1.6-0.4,1.4-1.3,1.4
			c-3.4,0-6.7,0-10.1,0c-0.5,0-1,0.1-1.4,0c-0.5-0.2-1.2-0.6-1.2-0.8c0.1-1.9-1.2-1.6-2.4-1.6c-44.7,0-89.3,0-134,0
			c-14.7,0-29.4,0-44.1,0c-1.5,0-2.5-1-3.1-1.9c-0.6-0.9-1-1.2-2-1.2c-4.1,0-8.2,0-12.3,0c-16.6,0-33.1,0-49.7,0
			c-0.8,0-1.8,0.2-2.4,0.7c-1.5,1.1-3,2.3-4.3,3.6c-0.5,0.5-1,1.4-1,2.2c-0.1,3-0.1,5.9,0,8.9c0,0.6,0.6,1.4,1.1,1.8
			c1.3,0.9,2.7,1.7,4.2,2.3c0.9,0.4,0.9,1,0.7,1.7c-1,3.6-2,7.1-3,10.7c-1.7,6-3.3,12.1-5,18.2c-0.5-0.1-1,0-1.4-0.2
			c-1.4-0.6-2.2,0-2.6,1.4c-0.5,1.8-1.1,3.6-1.7,5.4c-0.3,1,0,1.5,1.1,1.8c1.6,0.4,3.1,0.9,4.8,1.4c-0.2,1-0.4,1.9-0.6,2.8
			c-0.2,0.8-0.2,1.6,0.9,1.8c1,0.2,0.8,0.6,0.5,1.4c-1.5,3.9-3.1,7.8-4.4,11.8c-0.3,0.9-0.6,1.8-0.8,2.6h5.3c1.6-4.7,3.3-9.4,5.2-14
			c0.6,0.2,0.9,0.3,1.2,0.4c2,0.7,2.1,0.7,2.8-1.4c0.3-0.8,0.5-1.7,0.8-2.5c1.4,0.3,2.5,0.6,3.7,1c7.5,2.1,14.9,4.3,22.4,6.3
			c3.4,0.9,6.9,1.2,10.3-0.3c2.9-1.3,5.1-3.4,6.9-5.9c4-5.7,6.2-12.3,7.8-19c2-8.6,2.6-17.4,2.5-26.2c0-1.1,0.4-1.3,1.4-1.3
			c1.5,0,3,0.1,4.5,0c0.7-0.1,1.5-0.6,2.1-1c0.5-0.3,0.9-0.7,1.3-1c0.3-0.2,0.7-0.4,0.8-0.6c0.2-1.7,1.5-1.3,2.5-1.3
			c48.5,0,96.9,0,145.4,0c6.7,0,13.4,0,20.2,0c0.5,0,1.1-0.5,1.6-0.7c0.3-0.1,0.8-0.2,1.1-0.1c1.4,0.3,2.8,0.6,4.2,0.9
			c0.2,0,0.4-0.2,0.6-0.4c0.5-0.7,0.9-0.3,1.6-0.1c1.3,0.4,2.7,0.5,4.1,0.4c0.3,0,0.5-1.3,0.8-1.9c0-0.1,0.1-0.1,0.2-0.2
			c0,0.1,0.1,0.1,0.1,0.2c0.7-0.3,1.5-0.6,2.3-0.9c1.3,1.1,2.7,0.7,3.7-0.1c1,0.4,1.6,0.8,2.3,0.8c1.8,0.1,3.6,0,5.3,0
			c0.5,2.2,0.5,2.2,2.8,2.2c0.8,0,1.6,0,2.3,0c1,0,1.7-0.3,1.8-1.4c0-0.3,0.4-0.5,0.7-0.8c0.3,0.3,0.8,0.5,0.8,0.8
			c0.1,1.2,0.8,1.4,1.8,1.4c8.3,0,16.6,0,24.8,0c1.3,0,1.9-0.5,1.8-1.8C731.1,689.4,731.1,687.1,731.2,684.9z M477.9,725.6
			c-1.3,5-3.3,9.7-6.2,14c-2.3,3.4-7,4.6-10.6,2.6c-3.1-1.8-6.1-3.8-9.4-5.5c-2-1-4.3-1.6-6.5-2.3c-0.9-0.3-1.2-0.5-0.8-1.5
			c1.9-5.4,3.8-10.9,5.7-16.3c0.5-1.3,1.2-2.3,2.6-2.9c0.6-0.3,1-1.2,1.5-2c2.1,6,4.1,12.1,6.3,18.2c0.2,0.5,1,1,1.5,1
			c2.5-0.2,5-0.5,7.5-0.8c1.4-0.1,1.8-1,1.4-2.1c-0.4-1.1-1.1-2.1-1.6-3.2c-0.3-0.7-0.8-1.3-1-2.1c-0.4-1.7-0.9-3.2-2.1-4.6
			c-1.1-1.3-0.8-3.2-0.1-4.7c0.5-1,0.3-1.6-0.5-2.2c-1.7-1.2-2.1-2.9-1.6-4.6c0.6-1.8,0.1-3.4,0.1-5.1c0-1.3-0.3-2.6-0.6-4.1
			c0.6-0.1,1.1-0.2,1.6-0.2c4.6,0,9.2,0,13.9,0c1.3,0,1.6,0.4,1.6,1.7C480.9,708,480.2,716.9,477.9,725.6z"/>
		<path fill="#15A6DB" d="M740.6,684.5c4.1-1.6,8.2-3.2,12.3-4.8c7-2.7,13.9-5.5,20.9-8.2c1.3-0.5,1.7-1.2,0.9-2.4
			c-0.4,0-0.8,0-1.2,0c-0.5,0.3-0.9,0.6-1.4,0.8c-4.3,1.7-8.6,3.4-13,5.1c-4.8,1.9-9.6,3.7-14.4,5.6c-2.1,0.8-4.1,1.6-6.2,2.6
			c-0.4,0.2-0.5,0.9-0.8,1.3c0.4,0.2,0.8,0.5,1.3,0.5C739.6,685,740.2,684.7,740.6,684.5z"/>
		<path fill="#15A6DB" d="M784.9,686.3c-10,0-19.9,0-29.9,0c-0.5,0-1,0-1.4,0.2c-0.3,0.1-0.7,0.6-0.6,0.9c0,0.3,0.4,0.7,0.8,0.9
			c0.3,0.2,0.7,0.1,1,0.1c10.2,0,20.4,0,30.7,0c0.6,0,1.1-0.2,1.7-0.3c0-0.5,0-1,0-1.5C786.3,686.5,785.6,686.3,784.9,686.3z"/>
		<path fill="#15A6DB" d="M760,697.8c-6.8-2.7-13.6-5.4-20.4-8c-0.5-0.2-1.1,0.2-1.7,0.4c0.3,0.5,0.5,1.3,0.9,1.5
			c3.8,1.6,7.7,3.1,11.6,4.6c4.4,1.7,8.8,3.4,13.2,5.1c3.3,1.3,6.6,2.6,9.8,3.9c0.9,0.4,1.5,0.1,1.8-1.1c-0.4-0.3-0.8-0.7-1.3-0.9
			C769.3,701.4,764.6,699.6,760,697.8z"/>
		<path fill="#15A6DB" d="M781,696.3c-2.1-0.5-4.3-0.9-6.4-1.4c-6.4-1.5-12.9-2.9-19.3-4.4c-2.7-0.6-5.4-1.2-8.4-1.9
			c-0.3,0.2-1,0.6-0.9,0.9c0,0.4,0.5,1,1,1.2c0.9,0.3,1.9,0.4,2.8,0.6c6.4,1.5,12.9,2.9,19.3,4.4c4.1,0.9,8.2,1.9,12.3,2.8
			c0.4,0.1,1-0.5,1.5-0.7c-0.3-0.4-0.5-0.9-0.9-1.2C781.7,696.4,781.3,696.4,781,696.3z"/>
		<path fill="#15A6DB" d="M747,683.9c-0.4,0.1-0.7,0.7-1.1,1.1c0.4,0.3,0.9,0.7,1.2,0.9c4.8-1.1,9.3-2.1,13.8-3.1
			c3.5-0.8,7.1-1.6,10.6-2.4c3.4-0.8,6.8-1.6,10.2-2.4c0.7-0.2,1.4-0.5,1.1-1.3c-0.2-0.4-1-0.7-1.5-0.6c-1.8,0.3-3.6,0.7-5.4,1.1
			c-4.6,1.1-9.2,2.1-13.7,3.2C757.1,681.6,752,682.7,747,683.9z"/>
	</g>
	<path fill="#15A6DB" d="M375.8,570.9L365,664.1h-30.3c-2.8-14.3-5.2-30.6-7.3-48.9c-1,7.8-3.2,24.1-6.8,48.9h-30.1l-10.9-93.2h23.6
		l2.6,32.5l2.5,31.4c0.9-16.3,3.1-37.6,6.7-64h25.2c0.3,2.7,1.2,13,2.6,30.8l2.7,35.5c1.4-22.6,3.6-44.6,6.8-66.2H375.8z"/>
	<path fill="#15A6DB" d="M400.7,617.3h-21.8v-5.1c0-5.9,0.7-10.5,2-13.7c1.4-3.2,4.1-6,8.2-8.5c4.1-2.5,9.4-3.7,16-3.7
		c7.9,0,13.8,1.4,17.8,4.2c4,2.8,6.4,6.2,7.2,10.3c0.8,4,1.2,12.4,1.2,25v38.4h-22.6v-6.8c-1.4,2.7-3.3,4.8-5.5,6.1
		c-2.2,1.4-4.9,2-8,2c-4.1,0-7.8-1.1-11.2-3.4c-3.4-2.3-5.1-7.3-5.1-15v-6.3c0-5.7,0.9-9.6,2.7-11.7c1.8-2.1,6.3-4.5,13.4-7.3
		c7.6-3,11.7-5,12.3-6c0.5-1,0.8-3.1,0.8-6.3c0-4-0.3-6.6-0.9-7.8c-0.6-1.2-1.6-1.8-3-1.8c-1.6,0-2.6,0.5-2.9,1.5
		c-0.4,1-0.6,3.7-0.6,7.9V617.3z M408,627.7c-3.7,2.7-5.9,5-6.5,6.9c-0.6,1.8-0.9,4.5-0.9,7.9c0,4,0.3,6.5,0.8,7.7
		c0.5,1.2,1.5,1.7,3.1,1.7c1.5,0,2.4-0.5,2.9-1.4c0.4-0.9,0.7-3.3,0.7-7.1V627.7z"/>
	<path fill="#15A6DB" d="M463.8,577.5v12h6.3v12.1h-6.3v40.9c0,5,0.3,7.8,0.8,8.4c0.5,0.6,2.7,0.9,6.5,0.9v12.3h-9.4
		c-5.3,0-9.1-0.2-11.3-0.7c-2.3-0.4-4.3-1.5-6-3.1c-1.7-1.6-2.8-3.4-3.2-5.5c-0.4-2.1-0.6-6.9-0.6-14.5v-38.8h-5v-12.1h5v-12H463.8z
		"/>
	<path fill="#15A6DB" d="M527.9,627.2h-30.1v16.5c0,3.5,0.2,5.7,0.7,6.7c0.5,1,1.5,1.5,2.9,1.5c1.8,0,2.9-0.7,3.5-2
		c0.6-1.3,0.9-3.9,0.9-7.7v-10.1h22.1v5.6c0,4.7-0.3,8.4-0.9,10.9c-0.6,2.5-2,5.2-4.2,8.1c-2.2,2.9-5,5-8.3,6.5
		c-3.4,1.4-7.6,2.2-12.6,2.2c-4.9,0-9.3-0.7-13-2.1c-3.8-1.4-6.7-3.4-8.8-5.8c-2.1-2.5-3.5-5.2-4.3-8.2c-0.8-3-1.2-7.3-1.2-13V614
		c0-6.7,0.9-11.9,2.7-15.8c1.8-3.9,4.8-6.8,8.9-8.9c4.1-2.1,8.8-3.1,14.2-3.1c6.5,0,11.9,1.2,16.2,3.7s7.2,5.8,8.9,9.8
		c1.7,4.1,2.6,9.8,2.6,17.2V627.2z M504.6,614.8v-5.6c0-4-0.2-6.5-0.6-7.7c-0.4-1.2-1.3-1.7-2.6-1.7c-1.6,0-2.6,0.5-3,1.5
		c-0.4,1-0.6,3.6-0.6,7.9v5.6H504.6z"/>
	<path fill="#15A6DB" d="M558.8,587.7l-0.9,10c3.4-7.2,8.3-11,14.7-11.4v26.9c-4.3,0-7.4,0.6-9.4,1.7c-2,1.2-3.2,2.8-3.7,4.8
		c-0.5,2.1-0.7,6.8-0.7,14.2v30.2h-23.3v-76.4H558.8z"/>
	<g>
		<path fill="#A6CE39" d="M639.4,637.1l-2.7-35.5c-1.4-17.8-2.3-28-2.6-30.8h-25.2c-3.6,26.4-5.8,47.7-6.7,64l-2.5-31.4l-2.6-32.5
			h-23.6l10.9,93.2h30.1c3.5-24.8,5.8-41.1,6.8-48.9c2.1,18.3,4.6,34.6,7.3,48.9h30.3l10.8-93.2h-23.6
			C643,592.4,640.8,614.5,639.4,637.1z"/>
		<path fill="#A6CE39" d="M716.8,590.5c-4-2.8-9.9-4.2-17.8-4.2c-6.6,0-11.9,1.2-16,3.7c-4.1,2.5-6.8,5.3-8.2,8.5
			c-1.4,3.2-2,7.8-2,13.7v5.1h21.8v-8c0-4.3,0.2-6.9,0.6-7.9c0.4-1,1.4-1.5,2.9-1.5c1.4,0,2.4,0.6,3,1.8c0.6,1.2,0.9,3.8,0.9,7.8
			c0,3.2-0.3,5.3-0.8,6.3c-0.5,1-4.6,3.1-12.3,6c-7.1,2.8-11.6,5.2-13.4,7.3c-1.8,2.1-2.7,6-2.7,11.7v6.3c0,7.7,1.7,12.7,5.1,15
			c3.4,2.3,7.1,3.4,11.2,3.4c3.1,0,5.8-0.7,8-2c2.2-1.4,4.1-3.4,5.5-6.1v6.8h22.6v-38.4c0-12.6-0.4-21-1.2-25
			C723.2,596.7,720.8,593.2,716.8,590.5z M701.9,643.5c0,3.8-0.2,6.2-0.7,7.1c-0.4,0.9-1.4,1.4-2.9,1.4c-1.5,0-2.6-0.6-3.1-1.7
			c-0.5-1.2-0.8-3.7-0.8-7.7c0-3.5,0.3-6.1,0.9-7.9c0.6-1.8,2.8-4.1,6.5-6.9V643.5z"/>
		<path fill="#A6CE39" d="M766,619.5c-5.1-2.5-8.4-4.4-10-5.7c-1.6-1.3-2.6-2.5-2.9-3.6c-0.3-1.1-0.5-2.8-0.5-5.2c0-1.7,0.3-3,1-3.9
			c0.7-0.9,1.6-1.3,2.9-1.3c1.6,0,2.6,0.5,3,1.4c0.4,0.9,0.6,3.2,0.6,6.7v4.1h20.6v-4.4c0-3.8-0.2-6.7-0.6-8.5
			c-0.4-1.8-1.6-3.8-3.5-5.9c-1.9-2.1-4.6-3.8-8.2-5.1c-3.6-1.3-7.9-1.9-12.9-1.9c-5.1,0-9.6,0.8-13.4,2.4c-3.9,1.6-6.6,3.8-8.2,6.7
			c-1.6,2.9-2.4,7.4-2.4,13.5c0,4.3,0.7,8,2.2,11.1c1.5,3.1,5.7,6.6,12.5,10.5c8.1,4.5,12.6,7.3,13.5,8.2c0.8,0.9,1.3,3.2,1.3,6.9
			c0,2.6-0.3,4.4-1,5.2c-0.7,0.8-1.8,1.2-3.5,1.2c-1.5,0-2.6-0.6-3.1-1.8c-0.5-1.2-0.8-3.9-0.8-8v-4.8h-20.6v3.7
			c0,6.4,0.8,11.1,2.4,14.3c1.6,3.1,4.5,5.6,8.7,7.5c4.2,1.8,9.3,2.8,15.2,2.8c5.3,0,9.9-0.9,13.7-2.6c3.8-1.7,6.5-4.1,8.1-7.3
			c1.6-3.2,2.4-7.9,2.4-14.1c0-5.6-1.1-9.8-3.2-12.7C777.2,625.9,772.8,622.8,766,619.5z"/>
		<path fill="#A6CE39" d="M841.6,596.6c-0.6-2.7-2.4-5.1-5.2-7.2c-2.9-2.1-6.3-3.1-10.4-3.1c-2.6,0-5.1,0.5-7.5,1.4
			c-2.3,0.9-4.5,2.3-6.5,4.2v-21h-23.3v93.2H812v-54.5c0-3.9,0.2-6.5,0.7-7.8c0.5-1.3,1.5-2,2.9-2c1.5,0,2.5,0.6,3,1.9
			c0.4,1.3,0.7,4.1,0.7,8.6v53.8h23.3v-52.7C842.5,604.2,842.2,599.3,841.6,596.6z"/>
	</g>
	<path fill="#15A6DB" d="M915.2,607.7c-13.1-17.5-30.1-30.5-48.8-41.4c-53.3-30.9-112.3-45.6-173.3-53.8c-1.6-0.2-3.1-0.4-4.7-0.6
		c0,0.1,0,0.3,0,0.4l-0.1,2.9c30.3,5.1,60,12.6,88.9,23.3c26,9.6,50.7,21.7,71.9,39.8c8.5,7.3,16,15.6,21.7,25.5
		c12.8,22.3,11,46.6-5.3,67.8c-13.9,18.1-32.1,30.5-51.8,40.9c-34.2,18-70.4,29-107.7,36.4c-89.3,17.6-178,17.8-266,1.9
		c-32.1-5.8-63.4-14.5-93.3-27.3c-21.4-9.2-41.9-20.1-59-35.9c-7-6.5-13.5-13.9-18.7-21.9c-14.3-22.2-12.9-45.1,2.9-67.6
		c0.7-1,1.4-2.1,2.8-4.1c-31.7,29.2-43.2,70.7-11,109.8c15.1,18.3,34.2,31.6,55,42.6c54.7,28.7,114.3,42.6,175.7,50.1
		c81.9,10,163.8,7.3,245.8-10.2c43-9.2,84.7-22.4,123.5-44.7c17.3-10,33.3-21.7,46.5-37.1C936.8,673.4,938.7,638.9,915.2,607.7z"/>
</g>
</svg>
