<svg xmlns="http://www.w3.org/2000/svg" width="1129.725" height="726.354" viewBox="117.705 274.948 376.575 242.118" xmlns:v="http://www.w3.org/1999/xlink"><path fill="#5d5e5e" d="M494.216 428.467c-.622-11.669-5.964-21.108-13.329-29.407-6.742-7.624-14.729-13.692-22.354-18.152 2.23 1.764 5.55 4.201 8.661 6.846 9.232 7.78 17.115 16.701 20.746 28.681 3.786 12.551 1.607 24.48-5.55 35.838-8.661 13.641-21.264 22.613-35.008 30.082-20.124 10.892-41.647 17.582-63.689 22.146-51.709 10.736-103.055 10.788-154.038 1.142-21.627-4.098-42.581-10.166-62.237-19.813-13.485-6.639-26.088-14.574-35.683-26.399-8.454-10.424-13.225-22.249-10.943-36.46 1.193-7.521 4.512-14.159 8.869-20.435-13.485 15.559-16.701 35.112-3.734 54.095 6.794 10.01 15.871 17.634 25.932 24.013 30.756 19.501 65.401 28.318 101.395 33.193 23.08 3.164 46.367 3.786 69.81 2.801 0 0 25.673-2.697 43.307-3.631.622-.363 1.349-.57 2.179-.726 25.05-3.942 49.634-10.01 73.024-21.058 12.967-6.119 25.206-13.536 35.476-23.909 10.682-10.84 17.996-23.184 17.166-38.847z"/><g fill="#15a6db"><path d="M341.216 376.655h0c-.052 0-.052 0 0 0h0z"/><path d="M341.216 376.655h0 0z"/></g><path d="M236.501 364.155h0v5.187h-5.186 0c-.052-2.853 2.282-5.187 5.186-5.187zm.779 0h0c2.853 0 5.187 2.334 5.187 5.187h0-5.187v-5.187zm-6.017 6.016h5.187v5.187h-5.187zm6.017 0h5.187v5.187h-5.187zm85.472-6.016h0v5.187h-5.187 0a5.17 5.17 0 0 1 5.187-5.187zm.778 0h0c2.853 0 5.187 2.334 5.187 5.187h0-5.187v-5.187zm-5.965 6.016h5.187v5.187h-5.187zm5.965 0h5.187v5.187h-5.187z" fill="#5d5e5e"/><g fill="#a6ce39"><path d="M323.375 338.482v6.587l-.363-.311-4.513 3.786-.519.415-5.134 4.253-2.126 1.763-5.55 4.668-2.178 1.763-2.49 2.075-20.693 17.271-21.68-17.997-11.825-9.802-6.12-5.135-3.112-2.593-.571-.467-39.52 34.127-66.646-.986 61.304-.674 15.144-13.329v-14.367h9.491v6.691l20.747-17.738 1.763.934 2.956 1.556 4.979 2.645 11.41 5.965 2.645 1.4 7.106 3.734 1.659.882 11.099 5.808 2.438-1.296 2.386-1.297 2.852-1.504 3.527-1.919 2.386-1.296 1.4-.779 7.365-3.941 2.178-1.141 10.528-5.653 2.801-1.504 4.876-2.645z"/><path d="M429.748 378.366l-66.801.519-39.572-33.816v-6.587l20.382 17.375v-6.224h9.596v14.782l15.403 13.018z"/></g><path d="M278.823 382.723H267.05l-26.866-24.429-3.163-2.904-.104-.103-33.038 27.695-73.544-1.971 67.528-.933 39.002-32.415.207.155 3.112 2.645 6.12 5.083 9.491 7.935zm150.925-1.816l-74.477 1.712-31.896-27.281-.156-.155-9.388 8.298-21.627 19.138h-11.358l24.324-20.434 10.528-8.817 1.349-1.141 6.016-5.031.312.259 38.639 32.778zm-177.739-52.072v7.365l-2.385 1.193v-3.319l-7.884 4.979-2.956-1.556zm6.12 4.72v14.108l-11.41-5.965zm-4.927-39.365v39.365l7.572-4.72v20.227l7.105 3.734V318.41l4.771-3.786V281.69l-19.448 12.5zm8.298 18.516h-2.8v-2.8h2.801v2.8zm0-5.55h-2.8v-2.801h2.801v2.801zm0-5.549h-2.8v-2.801h2.801v2.801zm5.653 11.099h-2.8v-2.8h2.8v2.8zm0-5.55h-2.8v-2.801h2.8v2.801zm0-5.549h-2.8v-2.801h2.8v2.801zm21.161 10.217v43.566l-2.852 1.504v-47.922z" fill="#15a6db"/><path d="M283.076 329.147v29.044l-2.438 1.296-11.099-5.808v-12.5zm-.726-10.477l-12.811 11.722v7.416l12.811-11.358zm.466-9.698l-13.277 11.098v6.899l13.277-11.203zm-7.572 3.06v-29.874l13.018 14.47v10.165l-2.748-2.853zm18.983 6.431v33.712l-2.386 1.244v-37.135z" fill="#5d5e5e"/><path d="M309.423 287.396v25.103l-6.431-4.461v39.417l-7.365 3.941v-36.719l-4.979-4.824v-34.905zm-4.253 25.569v33.349l10.528-5.653v-2.489h2.801v.985l4.876-2.645h0v-11.047l-18.205-12.5zm7.676 28.007h-2.801v-2.8h2.801v2.8zm0-6.068h-2.801v-2.801h2.801v2.801zm5.653 0h-2.801v-2.801h2.801v2.801zm60.733 110.316c0-.623-.207-.934-.934-.934h-12.966c-.519 0-.83.104-.882.674 0 .155-.26.312-.415.415-.155-.155-.259-.312-.415-.415-.207-.207-.363-.622-.57-.622-.726-.052-1.504-.052-2.282 0-.207 0-.57.467-.519.519.363.83-.207.726-.674.726h-5.238c-.26 0-.519.052-.727 0-.259-.104-.622-.311-.622-.414.052-.986-.622-.83-1.245-.83h-69.498-22.872c-.778 0-1.297-.519-1.608-.985s-.519-.623-1.037-.623h-6.379-25.777c-.415 0-.934.104-1.245.363-.778.57-1.556 1.193-2.23 1.867-.259.26-.519.727-.519 1.141v4.616c0 .312.312.727.571.934a11.04 11.04 0 0 0 2.178 1.193c.467.207.467.519.363.882l-1.556 5.549-2.593 9.439c-.259-.052-.519 0-.726-.104-.726-.312-1.141 0-1.349.726l-.881 2.801c-.156.519 0 .778.57.934l2.489.727-.311 1.452c-.104.415-.104.83.467.934.519.104.415.311.259.726l-2.282 6.12-.415 1.349h2.749l2.697-7.261.622.207c1.038.363 1.089.363 1.453-.726l.415-1.297c.726.155 1.297.312 1.919.519l11.618 3.268c1.764.467 3.579.622 5.342-.155 1.504-.675 2.645-1.764 3.579-3.061 2.075-2.956 3.215-6.379 4.045-9.854 1.037-4.46 1.349-9.024 1.296-13.588 0-.57.208-.675.726-.675.778 0 1.556.053 2.334 0 .363-.052.778-.311 1.089-.519.259-.155.467-.362.674-.519.155-.104.363-.207.415-.311.104-.882.778-.675 1.297-.675h75.411 10.477c.26 0 .57-.259.83-.363.155-.052.415-.104.57-.052l2.179.467c.104 0 .207-.104.311-.207.26-.363.467-.156.83-.052.674.207 1.4.259 2.127.207.155 0 .259-.674.414-.985 0-.052.052-.052.104-.104 0 .052.052.052.052.104.362-.155.777-.312 1.192-.467.675.57 1.4.363 1.919-.052.519.207.83.415 1.193.415.934.052 1.867 0 2.749 0 .259 1.141.259 1.141 1.452 1.141h1.192c.519 0 .882-.155.934-.726 0-.156.208-.26.363-.415.155.155.415.259.415.415.052.622.415.726.934.726h12.862c.674 0 .985-.259.934-.934.105-1.297.105-2.491.156-3.631zM247.86 466.328c-.674 2.593-1.711 5.031-3.215 7.261-1.193 1.764-3.631 2.386-5.498 1.349-1.608-.934-3.164-1.971-4.875-2.853-1.037-.519-2.23-.83-3.371-1.192-.467-.156-.623-.26-.415-.778l2.957-8.454c.259-.674.622-1.192 1.348-1.504.312-.155.519-.622.778-1.037l3.267 9.439c.104.259.519.519.778.519 1.296-.104 2.593-.26 3.89-.415.726-.052.934-.519.726-1.089s-.57-1.09-.83-1.66c-.155-.363-.415-.674-.519-1.089-.208-.882-.467-1.66-1.089-2.386-.571-.675-.415-1.66-.052-2.438.26-.519.156-.83-.259-1.142-.881-.622-1.089-1.504-.83-2.386.311-.934.052-1.763.052-2.645 0-.675-.156-1.349-.311-2.127.311-.052.57-.104.83-.104h7.209c.674 0 .83.208.83.882.155 4.721-.208 9.337-1.401 13.849zm136.247-21.316l6.38-2.489 10.84-4.253c.674-.26.881-.622.467-1.245h-.623c-.259.156-.467.312-.726.415l-6.742 2.646-7.469 2.904-3.216 1.349c-.207.104-.259.467-.415.674.208.104.415.26.675.26.311-.002.622-.158.829-.261zm22.977.933h-15.508c-.259 0-.519 0-.726.104-.156.052-.363.312-.312.467 0 .156.207.363.415.467.155.104.363.052.519.052h15.922c.312 0 .571-.104.882-.155v-.778c-.466-.053-.83-.157-1.192-.157zm-12.914 5.965l-10.581-4.149c-.259-.104-.57.104-.882.207.156.26.26.675.467.778l6.017 2.386 6.846 2.646 5.083 2.022c.467.207.778.052.934-.57-.207-.156-.415-.363-.674-.467l-7.21-2.853zm10.891-.778l-3.319-.726-10.01-2.282-4.356-.985c-.155.104-.519.311-.467.467 0 .207.26.519.519.622.467.155.985.207 1.452.312l10.01 2.281 6.38 1.452c.207.052.519-.259.778-.362-.156-.208-.26-.467-.467-.623-.157-.104-.364-.104-.52-.156zm-17.634-6.431c-.207.052-.362.362-.57.57l.622.467 7.158-1.608 5.497-1.244 5.29-1.245c.363-.104.727-.259.57-.674-.104-.208-.519-.363-.777-.312l-2.801.57-7.105 1.66-7.884 1.816zm-192.521-58.607l-5.601 48.338H173.59c-1.452-7.417-2.697-15.871-3.786-25.361l-3.527 25.361h-15.611l-5.653-48.338h12.24l1.349 16.856 1.296 16.285c.467-8.454 1.608-19.501 3.475-33.193h13.07c.155 1.4.622 6.742 1.348 15.975l1.4 18.411c.726-11.721 1.867-23.131 3.527-34.334h12.188 0zm12.915 24.065h-11.307v-2.646c0-3.06.363-5.445 1.038-7.105.726-1.659 2.126-3.111 4.252-4.408s4.875-1.919 8.298-1.919c4.098 0 7.157.726 9.232 2.179s3.319 3.215 3.734 5.342c.415 2.074.623 6.431.623 12.966v19.916H211.97v-3.526c-.726 1.4-1.711 2.489-2.853 3.163-1.141.727-2.541 1.037-4.149 1.037-2.126 0-4.045-.57-5.809-1.763s-2.645-3.786-2.645-7.78v-3.268c0-2.956.467-4.979 1.4-6.067s3.268-2.334 6.95-3.786c3.942-1.557 6.068-2.594 6.379-3.112.259-.519.415-1.607.415-3.268 0-2.074-.156-3.423-.467-4.045s-.83-.934-1.556-.934c-.83 0-1.348.259-1.504.777-.208.52-.311 1.92-.311 4.098v4.149zm3.786 5.394c-1.919 1.4-3.06 2.594-3.372 3.579-.311.934-.467 2.334-.467 4.097 0 2.075.156 3.371.415 3.994s.778.882 1.608.882c.778 0 1.245-.26 1.504-.727.208-.467.363-1.712.363-3.683v-8.143h-.051zm28.94-26.036v6.224h3.268v6.276h-3.268v21.212c0 2.594.156 4.046.415 4.357s1.4.467 3.371.467v6.379h-4.875c-2.749 0-4.72-.104-5.861-.363-1.193-.207-2.23-.777-3.112-1.607s-1.452-1.764-1.66-2.853-.311-3.579-.311-7.521v-20.123h-2.593v-6.276h2.593v-6.224h12.032v.052zm33.245 25.777h-15.611v8.558c0 1.814.104 2.956.363 3.475s.778.778 1.504.778c.933 0 1.504-.363 1.815-1.038s.467-2.022.467-3.993v-5.238h11.462v2.904c0 2.438-.155 4.356-.467 5.653s-1.037 2.697-2.178 4.201-2.593 2.593-4.305 3.371c-1.763.726-3.941 1.141-6.535 1.141-2.542 0-4.824-.362-6.743-1.089-1.971-.726-3.475-1.764-4.564-3.008a10.85 10.85 0 0 1-2.23-4.253c-.415-1.557-.623-3.786-.623-6.742v-11.566c0-3.475.467-6.172 1.4-8.194s2.489-3.526 4.616-4.616 4.564-1.607 7.365-1.607c3.372 0 6.172.622 8.402 1.919s3.734 3.008 4.616 5.083c.882 2.126 1.349 5.082 1.349 8.92v5.343h-.103zm-12.084-6.432v-2.904c0-2.074-.104-3.371-.312-3.993s-.674-.882-1.348-.882c-.83 0-1.349.259-1.556.777s-.311 1.867-.311 4.098v2.904h3.527zm28.11-14.055l-.467 5.186c1.763-3.733 4.305-5.705 7.624-5.912v13.951c-2.23 0-3.838.312-4.875.882-1.037.623-1.66 1.452-1.919 2.489-.259 1.09-.363 3.527-.363 7.365v15.663h-12.084v-39.625h12.084z" fill="#15a6db"/><path d="M331.621 420.428l-1.4-18.411-1.349-15.975h-13.069c-1.867 13.692-3.009 24.739-3.476 33.193l-1.296-16.285-1.349-16.856h-12.24l5.653 48.338h15.611l3.526-25.361c1.089 9.49 2.386 17.944 3.786 25.361h15.715l5.602-48.338h-12.24c-1.607 11.151-2.748 22.613-3.474 34.334zm40.143-24.168c-2.074-1.453-5.134-2.179-9.231-2.179-3.423 0-6.172.623-8.298 1.919s-3.527 2.749-4.253 4.408-1.038 4.046-1.038 7.105v2.646h11.307v-4.149c0-2.23.104-3.578.312-4.098s.726-.777 1.504-.777c.726 0 1.245.311 1.556.934s.467 1.971.467 4.045c0 1.66-.155 2.749-.415 3.268s-2.386 1.607-6.379 3.112c-3.683 1.452-6.017 2.696-6.95 3.786s-1.4 3.111-1.4 6.067v3.268c0 3.994.882 6.587 2.646 7.78s3.683 1.763 5.809 1.763c1.608 0 3.008-.362 4.149-1.037 1.141-.726 2.126-1.763 2.853-3.163v3.526h11.722v-19.916c0-6.535-.208-10.892-.623-12.966-.419-2.127-1.663-3.942-3.738-5.342zm-7.728 27.487c0 1.972-.104 3.216-.363 3.683-.207.467-.726.727-1.504.727s-1.349-.312-1.607-.882c-.26-.622-.415-1.919-.415-3.994 0-1.814.155-3.163.467-4.097s1.452-2.127 3.371-3.579v8.143h.051zm33.245-12.447c-2.645-1.296-4.356-2.282-5.187-2.956s-1.349-1.297-1.504-1.867-.26-1.452-.26-2.697c0-.881.156-1.556.52-2.022s.829-.674 1.504-.674c.829 0 1.349.259 1.556.726s.312 1.66.312 3.476v2.126h10.684v-2.282c0-1.971-.104-3.475-.312-4.408s-.829-1.971-1.814-3.061-2.386-1.97-4.253-2.645-4.098-.985-6.69-.985c-2.646 0-4.979.415-6.95 1.245-2.022.83-3.423 1.971-4.253 3.475s-1.245 3.838-1.245 7.002c0 2.229.363 4.148 1.142 5.757s2.956 3.423 6.482 5.445l7.002 4.253c.415.467.675 1.66.675 3.579 0 1.348-.156 2.281-.52 2.696s-.933.623-1.814.623c-.778 0-1.349-.312-1.608-.934s-.415-2.023-.415-4.149v-2.489h-10.684v1.919c0 3.319.415 5.757 1.245 7.416.829 1.608 2.334 2.904 4.512 3.891 2.179.933 4.823 1.452 7.884 1.452 2.748 0 5.134-.467 7.105-1.349s3.371-2.127 4.2-3.786 1.245-4.098 1.245-7.313c0-2.904-.57-5.082-1.659-6.586-1.091-1.559-3.372-3.166-6.9-4.878zm39.21-11.877c-.312-1.4-1.245-2.645-2.697-3.734-1.504-1.089-3.268-1.608-5.394-1.608-1.349 0-2.646.259-3.891.726-1.192.467-2.334 1.193-3.371 2.178v-10.892h-12.084v48.338h12.084v-28.267c0-2.022.104-3.371.363-4.045s.778-1.037 1.504-1.037c.778 0 1.297.311 1.557.985.207.674.362 2.126.362 4.46v27.903h12.085v-27.333c-.051-3.732-.207-6.274-.518-7.674z" fill="#a6ce39"/><path fill="#15a6db" d="M474.663 405.18c-6.794-9.076-15.611-15.818-25.31-21.472-27.644-16.026-58.244-23.65-89.881-27.903l-2.438-.311v.207l-.052 1.504c15.715 2.645 31.119 6.535 46.107 12.084 13.485 4.979 26.296 11.254 37.291 20.642 4.408 3.786 8.298 8.091 11.255 13.226 6.639 11.565 5.705 24.169-2.749 35.164-7.209 9.388-16.648 15.818-26.866 21.213-17.737 9.335-36.513 15.04-55.857 18.878-46.315 9.129-92.319 9.232-137.959.986-16.648-3.009-32.882-7.521-48.39-14.159-11.099-4.771-21.731-10.425-30.6-18.619-3.63-3.372-7.001-7.21-9.699-11.358-7.417-11.515-6.69-23.392 1.504-35.061l1.452-2.127c-16.441 15.145-22.406 36.669-5.705 56.947 7.832 9.491 17.737 16.39 28.525 22.095 28.37 14.885 59.281 22.094 91.125 25.983 42.477 5.187 84.954 3.786 127.483-5.29 22.302-4.771 43.929-11.617 64.053-23.184 8.973-5.186 17.271-11.254 24.117-19.241 13.797-16.129 14.783-34.023 2.594-50.204z"/></svg>